<?xml version="1.0" encoding="UTF-8"?>
<!DOCTYPE svg PUBLIC "-//W3C//DTD SVG 1.0//EN" "http://www.w3.org/TR/2001/REC-SVG-20010904/DTD/svg10.dtd">
<!-- Creator: CorelDRAW 2020 (64-Bit) -->
<svg xmlns="http://www.w3.org/2000/svg" xml:space="preserve" width="680px" height="680px" version="1.0" style="shape-rendering:geometricPrecision; text-rendering:geometricPrecision; image-rendering:optimizeQuality; fill-rule:evenodd; clip-rule:evenodd"
viewBox="0 0 172.45 172.45"
 xmlns:xlink="http://www.w3.org/1999/xlink"
 xmlns:xodm="http://www.corel.com/coreldraw/odm/2003">
 <defs>
  <style type="text/css">
   <![CDATA[
    .fil0 {fill:none}
    .fil1 {fill:#136CFC;fill-rule:nonzero}
    .fil2 {fill:#5625B5;fill-rule:nonzero}
    .fil3 {fill:#747474;fill-rule:nonzero}
    .fil5 {fill:url(#id0)}
    .fil4 {fill:url(#id1);fill-rule:nonzero}
   ]]>
  </style>
  <linearGradient id="id0" gradientUnits="userSpaceOnUse" x1="9.49" y1="120.63" x2="20.4" y2="120.63">
   <stop offset="0" style="stop-opacity:1; stop-color:#5625B5"/>
   <stop offset="1" style="stop-opacity:1; stop-color:#136CFC"/>
  </linearGradient>
  <linearGradient id="id1" gradientUnits="userSpaceOnUse" x1="19.67" y1="112.44" x2="73.58" y2="58.52">
   <stop offset="0" style="stop-opacity:1; stop-color:#136CFC"/>
   <stop offset="0.560784" style="stop-opacity:1; stop-color:#3449D9"/>
   <stop offset="1" style="stop-opacity:1; stop-color:#5625B5"/>
  </linearGradient>
 </defs>
 <g id="Layer_x0020_1">
  <metadata id="CorelCorpID_0Corel-Layer"/>
  <g id="_1867335946592">
   <polygon class="fil0" points="0,0 172.45,0 172.45,172.45 0,172.45 "/>
   <g>
    <g>
     <g>
      <path class="fil1" d="M43.06 86.14l0 -18.5 -3.22 0 0 7.63 -9.27 0 0 2.86 9.27 0 0 8.01 3.22 0zm-14.82 0l0 -18.5 -3.22 0 0 18.5 3.22 0zm21.41 -0.07l0 -18.43 -3.22 0 0 18.43 3.22 0zm22.9 0l0 -10.73 -11.55 0 0 2.72 8.31 0 0 4.79 -7.88 0c-3.32,0 -5.73,-2.56 -5.73,-6.04 0,-3.49 2.44,-5.95 5.73,-5.95l9.98 0 0 -3.22 -9.98 0c-5.14,0 -8.94,3.6 -8.94,9.02 0,5.35 3.8,9.41 8.94,9.41l11.12 0zm21.01 0.07l0 -18.5 -3.22 0 0 7.63 -9.27 0 0 2.86 9.27 0 0 8.01 3.22 0zm-14.82 0l0 -18.5 -3.22 0 0 18.5 3.22 0z"/>
      <path class="fil2" d="M114.06 85.31c0.35,0.68 0.96,1.01 1.65,1.01 0.68,0 1.29,-0.33 1.67,-1.01l9.53 -17.67 -3.6 0 -7.5 14.17 -7.12 -14.17 -3.88 0 4.79 9.15 -2.79 5.02 -7.45 -14.17 -3.85 0 9.53 17.67c0.38,0.68 0.96,1.01 1.67,1.01 0.66,0 1.29,-0.33 1.65,-1.01l2.86 -5.4 2.84 5.4zm32.18 0.76l-10.62 -17.65c-0.38,-0.63 -0.83,-1.04 -1.54,-1.04 -0.71,0 -1.19,0.41 -1.57,1.04l-10.6 17.65 3.68 0 8.36 -14.15 4.11 6.9 -5.66 0 -1.52 2.61 8.72 0 2.76 4.64 3.88 0zm8.41 0l0 -7 9.81 -11.43 -4.11 0 -7.19 8.49 -7.17 -8.49 -4.34 0 9.78 11.43 0 7 3.22 0z"/>
     </g>
     <path class="fil3" d="M32.32 101.78l-7.33 0 0 -9.48 7.03 0 0 1 -5.41 0 0 3.16 5 0 0 0.99 -5 0 0 3.32 5.71 0 0 1.01zm8.25 0.16c-1.96,0 -3.53,-0.45 -4.71,-1.33 -1.18,-0.89 -1.78,-2.04 -1.78,-3.46 0,-1.53 0.61,-2.74 1.81,-3.65 1.2,-0.91 2.84,-1.37 4.92,-1.37 1.91,0 3.45,0.45 4.62,1.33 1.17,0.88 1.75,2.03 1.75,3.46 0,1.54 -0.6,2.77 -1.8,3.67 -1.19,0.9 -2.8,1.35 -4.81,1.35zm0.12 -8.8c-1.45,0 -2.64,0.36 -3.55,1.08 -0.9,0.72 -1.36,1.66 -1.36,2.83 0,1.17 0.45,2.11 1.33,2.82 0.89,0.71 2.04,1.07 3.46,1.07 1.52,0 2.72,-0.34 3.6,-1.02 0.87,-0.68 1.31,-1.63 1.31,-2.85 0,-1.25 -0.42,-2.22 -1.27,-2.9 -0.85,-0.69 -2.03,-1.03 -3.52,-1.03zm14.63 8.64l0 -9.48 3.83 0c4.88,0 7.32,1.53 7.32,4.62 0,1.46 -0.68,2.64 -2.03,3.53 -1.36,0.88 -3.17,1.33 -5.45,1.33l-3.67 0zm1.63 -8.48l0 7.47 2.06 0c1.82,0 3.23,-0.33 4.24,-1 1.01,-0.66 1.52,-1.61 1.52,-2.83 0,-2.43 -1.89,-3.64 -5.66,-3.64l-2.16 0zm22.96 8.48l-1.79 0 -1.47 -2.66 -5.87 0 -1.39 2.66 -1.8 0 5.31 -9.48 1.68 0 5.33 9.48zm-3.79 -3.66l-2.18 -4.04c-0.07,-0.13 -0.14,-0.34 -0.21,-0.63l-0.04 0c-0.06,0.26 -0.14,0.48 -0.22,0.63l-2.15 4.04 4.8 0zm14.02 -4.82l-4 0 0 8.48 -1.62 0 0 -8.48 -3.99 0 0 -1 9.61 0 0 1zm12.9 8.48l-1.8 0 -1.47 -2.66 -5.87 0 -1.38 2.66 -1.81 0 5.32 -9.48 1.68 0 5.33 9.48zm-3.8 -3.66l-2.17 -4.04c-0.07,-0.13 -0.14,-0.34 -0.21,-0.63l-0.04 0c-0.07,0.26 -0.14,0.48 -0.22,0.63l-2.16 4.04 4.8 0zm10.61 3.27l0 -1.3c0.22,0.13 0.48,0.25 0.78,0.35 0.31,0.11 0.63,0.2 0.97,0.27 0.34,0.07 0.68,0.13 1.02,0.17 0.34,0.04 0.66,0.06 0.94,0.06 1,0 1.75,-0.13 2.24,-0.38 0.49,-0.26 0.74,-0.62 0.74,-1.1 0,-0.25 -0.08,-0.47 -0.25,-0.66 -0.16,-0.19 -0.39,-0.37 -0.68,-0.52 -0.28,-0.16 -0.63,-0.31 -1.02,-0.45 -0.4,-0.15 -0.83,-0.3 -1.29,-0.46 -0.48,-0.16 -0.93,-0.33 -1.35,-0.51 -0.42,-0.17 -0.78,-0.36 -1.09,-0.56 -0.31,-0.21 -0.55,-0.45 -0.73,-0.71 -0.18,-0.26 -0.26,-0.57 -0.26,-0.92 0,-0.43 0.13,-0.81 0.41,-1.13 0.28,-0.32 0.64,-0.58 1.09,-0.79 0.45,-0.21 0.97,-0.36 1.54,-0.46 0.58,-0.1 1.17,-0.16 1.77,-0.16 1.36,0 2.36,0.12 2.98,0.34l0 1.25c-0.82,-0.38 -1.87,-0.58 -3.15,-0.58 -0.35,0 -0.71,0.03 -1.06,0.08 -0.35,0.05 -0.67,0.13 -0.95,0.24 -0.27,0.12 -0.5,0.27 -0.67,0.45 -0.18,0.18 -0.26,0.4 -0.26,0.66 0,0.24 0.06,0.45 0.19,0.63 0.14,0.17 0.33,0.33 0.59,0.48 0.25,0.15 0.57,0.29 0.94,0.42 0.37,0.14 0.8,0.29 1.28,0.45 0.5,0.17 0.97,0.35 1.41,0.53 0.45,0.19 0.84,0.39 1.17,0.62 0.33,0.22 0.6,0.47 0.8,0.74 0.19,0.28 0.29,0.59 0.29,0.94 0,0.47 -0.13,0.87 -0.4,1.19 -0.27,0.33 -0.63,0.59 -1.08,0.79 -0.46,0.2 -0.98,0.35 -1.57,0.44 -0.59,0.09 -1.22,0.14 -1.88,0.14 -0.21,0 -0.48,-0.02 -0.81,-0.04 -0.32,-0.02 -0.65,-0.06 -0.98,-0.11 -0.34,-0.04 -0.65,-0.1 -0.95,-0.17 -0.3,-0.07 -0.54,-0.14 -0.72,-0.23zm12.78 -3.2l0 3.59 -1.62 0 0 -9.48 3.8 0c1.48,0 2.63,0.24 3.44,0.74 0.82,0.49 1.22,1.19 1.22,2.09 0,0.89 -0.45,1.63 -1.35,2.2 -0.91,0.58 -2.13,0.86 -3.67,0.86l-1.82 0zm0 -4.89l0 3.89 1.7 0c1.12,0 1.97,-0.18 2.56,-0.53 0.59,-0.35 0.88,-0.84 0.88,-1.48 0,-1.25 -1.08,-1.88 -3.24,-1.88l-1.9 0zm20.17 8.48l-1.79 0 -1.47 -2.66 -5.88 0 -1.38 2.66 -1.8 0 5.31 -9.48 1.68 0 5.33 9.48zm-3.79 -3.66l-2.18 -4.04c-0.07,-0.13 -0.14,-0.34 -0.21,-0.63l-0.04 0c-0.06,0.26 -0.14,0.48 -0.22,0.63l-2.15 4.04 4.8 0zm15.26 3.26c-1.03,0.37 -2.3,0.56 -3.83,0.56 -1.97,0 -3.55,-0.44 -4.73,-1.31 -1.19,-0.87 -1.78,-2.01 -1.78,-3.42 0,-1.51 0.67,-2.74 2,-3.67 1.33,-0.94 3.03,-1.41 5.07,-1.41 1.31,0 2.4,0.14 3.27,0.4l0 1.18c-1,-0.38 -2.09,-0.57 -3.29,-0.57 -1.59,0 -2.88,0.36 -3.86,1.09 -0.99,0.73 -1.49,1.7 -1.49,2.92 0,1.15 0.46,2.08 1.39,2.76 0.92,0.69 2.13,1.03 3.64,1.03 1.38,0 2.59,-0.21 3.61,-0.64l0 1.08zm10.16 0.4l-7.34 0 0 -9.48 7.03 0 0 1 -5.41 0 0 3.16 5.01 0 0 0.99 -5.01 0 0 3.32 5.72 0 0 1.01z"/>
     <g>
      <path class="fil4" d="M74.53 112.35c-17.33,14.01 -38.65,16.5 -55.18,-0.23 -33.3,-33.7 13.3,-90.5 53.92,-53.91 -41.5,-30.65 -77.23,15.38 -56.51,46.24 13.52,20.13 37.11,20.36 55.24,5.38 0.7,-0.7 1.83,-0.7 2.53,0 0.69,0.7 0.69,1.83 0,2.52z"/>
     </g>
     <path class="fil0" d="M73.27 111.09c-14.61,14.6 -38.29,14.6 -52.89,0 -14.6,-14.6 -14.6,-38.28 0,-52.88 14.6,-14.61 38.28,-14.61 52.89,0"/>
    </g>
    <path class="fil5" d="M14.95 115.18c3.01,0 5.45,2.44 5.45,5.45 0,3.01 -2.44,5.46 -5.45,5.46 -3.01,0 -5.46,-2.45 -5.46,-5.46 0,-3.01 2.45,-5.45 5.46,-5.45z"/>
   </g>
  </g>
 </g>
</svg>
